<mxfile host="Electron" modified="2025-01-24T12:36:49.259Z" agent="Mozilla/5.0 (Macintosh; Intel Mac OS X 10_15_7) AppleWebKit/537.36 (KHTML, like Gecko) draw.io/23.1.5 Chrome/120.0.6099.109 Electron/28.1.0 Safari/537.36" etag="Qjla9qttVct4TwAtOV61" version="23.1.5" type="device" pages="2">
  <diagram name="Pagina-1" id="zzTPbrZuOmEpCKNn7qzb">
    <mxGraphModel dx="658" dy="396" grid="1" gridSize="10" guides="1" tooltips="1" connect="1" arrows="1" fold="1" page="1" pageScale="1" pageWidth="1169" pageHeight="827" math="0" shadow="0">
      <root>
        <mxCell id="0" />
        <mxCell id="1" parent="0" />
        <mxCell id="t6dsQMkvPQD5EQUjRo97-1" value="" style="shape=cube;whiteSpace=wrap;html=1;boundedLbl=1;backgroundOutline=1;darkOpacity=0.05;darkOpacity2=0.1;size=41;rotation=90;fillColor=#f5f5f5;fontColor=#333333;strokeColor=#666666;" vertex="1" parent="1">
          <mxGeometry x="279.5" y="134.5" width="185" height="184" as="geometry" />
        </mxCell>
        <mxCell id="t6dsQMkvPQD5EQUjRo97-2" value="" style="endArrow=none;dashed=1;html=1;dashPattern=1 3;strokeWidth=2;rounded=0;" edge="1" parent="1">
          <mxGeometry width="50" height="50" relative="1" as="geometry">
            <mxPoint x="282" y="318.5" as="sourcePoint" />
            <mxPoint x="320" y="280" as="targetPoint" />
          </mxGeometry>
        </mxCell>
        <mxCell id="t6dsQMkvPQD5EQUjRo97-3" value="" style="endArrow=none;dashed=1;html=1;dashPattern=1 3;strokeWidth=2;rounded=0;entryX=0;entryY=0;entryDx=0;entryDy=143;entryPerimeter=0;" edge="1" parent="1" target="t6dsQMkvPQD5EQUjRo97-1">
          <mxGeometry width="50" height="50" relative="1" as="geometry">
            <mxPoint x="320" y="280" as="sourcePoint" />
            <mxPoint x="510" y="270" as="targetPoint" />
          </mxGeometry>
        </mxCell>
        <mxCell id="t6dsQMkvPQD5EQUjRo97-4" value="" style="endArrow=none;dashed=1;html=1;dashPattern=1 3;strokeWidth=2;rounded=0;entryX=0;entryY=0;entryDx=144;entryDy=0;entryPerimeter=0;" edge="1" parent="1" target="t6dsQMkvPQD5EQUjRo97-1">
          <mxGeometry width="50" height="50" relative="1" as="geometry">
            <mxPoint x="320" y="280" as="sourcePoint" />
            <mxPoint x="420" y="250" as="targetPoint" />
          </mxGeometry>
        </mxCell>
        <mxCell id="t6dsQMkvPQD5EQUjRo97-5" value="" style="endArrow=classic;html=1;rounded=0;fillColor=#dae8fc;strokeColor=#6c8ebf;strokeWidth=3;" edge="1" parent="1">
          <mxGeometry width="50" height="50" relative="1" as="geometry">
            <mxPoint x="320" y="280" as="sourcePoint" />
            <mxPoint x="320" y="210" as="targetPoint" />
          </mxGeometry>
        </mxCell>
        <mxCell id="t6dsQMkvPQD5EQUjRo97-6" value="Z" style="text;html=1;align=center;verticalAlign=middle;resizable=0;points=[];autosize=1;strokeColor=none;fillColor=none;" vertex="1" parent="1">
          <mxGeometry x="290" y="182" width="30" height="30" as="geometry" />
        </mxCell>
        <mxCell id="t6dsQMkvPQD5EQUjRo97-7" value="" style="endArrow=classic;html=1;rounded=0;fillColor=#f8cecc;strokeColor=#b85450;strokeWidth=3;" edge="1" parent="1">
          <mxGeometry width="50" height="50" relative="1" as="geometry">
            <mxPoint x="320" y="280" as="sourcePoint" />
            <mxPoint x="380" y="280" as="targetPoint" />
          </mxGeometry>
        </mxCell>
        <mxCell id="t6dsQMkvPQD5EQUjRo97-8" value="X" style="text;html=1;align=center;verticalAlign=middle;resizable=0;points=[];autosize=1;strokeColor=none;fillColor=none;" vertex="1" parent="1">
          <mxGeometry x="370" y="250" width="30" height="30" as="geometry" />
        </mxCell>
        <mxCell id="t6dsQMkvPQD5EQUjRo97-9" value="" style="endArrow=classic;html=1;rounded=0;fillColor=#d5e8d4;strokeColor=#82b366;strokeWidth=3;" edge="1" parent="1">
          <mxGeometry width="50" height="50" relative="1" as="geometry">
            <mxPoint x="320" y="280" as="sourcePoint" />
            <mxPoint x="290" y="310" as="targetPoint" />
          </mxGeometry>
        </mxCell>
        <mxCell id="t6dsQMkvPQD5EQUjRo97-10" value="Y" style="text;html=1;align=center;verticalAlign=middle;resizable=0;points=[];autosize=1;strokeColor=none;fillColor=none;" vertex="1" parent="1">
          <mxGeometry x="279.5" y="260" width="30" height="30" as="geometry" />
        </mxCell>
        <mxCell id="VhFV3vIk3BgZcSHD1rAm-1" value="" style="shape=cube;whiteSpace=wrap;html=1;boundedLbl=1;backgroundOutline=1;darkOpacity=0.05;darkOpacity2=0.1;size=41;rotation=90;fillColor=#f5f5f5;fontColor=#333333;strokeColor=#666666;" vertex="1" parent="1">
          <mxGeometry x="530" y="134.5" width="185" height="184" as="geometry" />
        </mxCell>
        <mxCell id="VhFV3vIk3BgZcSHD1rAm-2" value="" style="endArrow=none;dashed=1;html=1;dashPattern=1 3;strokeWidth=2;rounded=0;" edge="1" parent="1">
          <mxGeometry width="50" height="50" relative="1" as="geometry">
            <mxPoint x="532.5" y="318.5" as="sourcePoint" />
            <mxPoint x="570.5" y="280" as="targetPoint" />
          </mxGeometry>
        </mxCell>
        <mxCell id="VhFV3vIk3BgZcSHD1rAm-3" value="" style="endArrow=none;dashed=1;html=1;dashPattern=1 3;strokeWidth=2;rounded=0;entryX=0;entryY=0;entryDx=0;entryDy=143;entryPerimeter=0;" edge="1" parent="1" target="VhFV3vIk3BgZcSHD1rAm-1">
          <mxGeometry width="50" height="50" relative="1" as="geometry">
            <mxPoint x="570.5" y="280" as="sourcePoint" />
            <mxPoint x="760.5" y="270" as="targetPoint" />
          </mxGeometry>
        </mxCell>
        <mxCell id="VhFV3vIk3BgZcSHD1rAm-4" value="" style="endArrow=none;dashed=1;html=1;dashPattern=1 3;strokeWidth=2;rounded=0;entryX=0;entryY=0;entryDx=144;entryDy=0;entryPerimeter=0;" edge="1" parent="1" target="VhFV3vIk3BgZcSHD1rAm-1">
          <mxGeometry width="50" height="50" relative="1" as="geometry">
            <mxPoint x="570.5" y="280" as="sourcePoint" />
            <mxPoint x="670.5" y="250" as="targetPoint" />
          </mxGeometry>
        </mxCell>
        <mxCell id="VhFV3vIk3BgZcSHD1rAm-5" value="" style="endArrow=classic;html=1;rounded=0;fillColor=#dae8fc;strokeColor=#6c8ebf;strokeWidth=3;" edge="1" parent="1">
          <mxGeometry width="50" height="50" relative="1" as="geometry">
            <mxPoint x="570.5" y="280" as="sourcePoint" />
            <mxPoint x="570.5" y="210" as="targetPoint" />
          </mxGeometry>
        </mxCell>
        <mxCell id="VhFV3vIk3BgZcSHD1rAm-6" value="Z" style="text;html=1;align=center;verticalAlign=middle;resizable=0;points=[];autosize=1;strokeColor=none;fillColor=none;" vertex="1" parent="1">
          <mxGeometry x="540.5" y="182" width="30" height="30" as="geometry" />
        </mxCell>
        <mxCell id="VhFV3vIk3BgZcSHD1rAm-7" value="" style="endArrow=classic;html=1;rounded=0;fillColor=#f8cecc;strokeColor=#b85450;strokeWidth=3;" edge="1" parent="1">
          <mxGeometry width="50" height="50" relative="1" as="geometry">
            <mxPoint x="570.5" y="280" as="sourcePoint" />
            <mxPoint x="630.5" y="280" as="targetPoint" />
          </mxGeometry>
        </mxCell>
        <mxCell id="VhFV3vIk3BgZcSHD1rAm-8" value="X" style="text;html=1;align=center;verticalAlign=middle;resizable=0;points=[];autosize=1;strokeColor=none;fillColor=none;" vertex="1" parent="1">
          <mxGeometry x="620.5" y="250" width="30" height="30" as="geometry" />
        </mxCell>
        <mxCell id="VhFV3vIk3BgZcSHD1rAm-9" value="" style="endArrow=classic;html=1;rounded=0;fillColor=#d5e8d4;strokeColor=#82b366;strokeWidth=3;" edge="1" parent="1">
          <mxGeometry width="50" height="50" relative="1" as="geometry">
            <mxPoint x="570.5" y="280" as="sourcePoint" />
            <mxPoint x="540.5" y="310" as="targetPoint" />
          </mxGeometry>
        </mxCell>
        <mxCell id="VhFV3vIk3BgZcSHD1rAm-10" value="Y" style="text;html=1;align=center;verticalAlign=middle;resizable=0;points=[];autosize=1;strokeColor=none;fillColor=none;" vertex="1" parent="1">
          <mxGeometry x="530" y="260" width="30" height="30" as="geometry" />
        </mxCell>
      </root>
    </mxGraphModel>
  </diagram>
  <diagram id="jabt45Ank8SOJSK1zkMQ" name="Pagina-2">
    <mxGraphModel dx="1468" dy="883" grid="1" gridSize="10" guides="1" tooltips="1" connect="1" arrows="1" fold="1" page="1" pageScale="1" pageWidth="1169" pageHeight="827" math="0" shadow="0">
      <root>
        <mxCell id="0" />
        <mxCell id="1" parent="0" />
        <mxCell id="BExbLMBwpLFMz_tROVOg-1" value="" style="shape=cube;whiteSpace=wrap;html=1;boundedLbl=1;backgroundOutline=1;darkOpacity=0.05;darkOpacity2=0.1;size=41;rotation=90;fillColor=#f5f5f5;fontColor=#333333;strokeColor=#666666;" vertex="1" parent="1">
          <mxGeometry x="281" y="40.5" width="185" height="184" as="geometry" />
        </mxCell>
        <mxCell id="BExbLMBwpLFMz_tROVOg-2" value="" style="endArrow=none;dashed=1;html=1;dashPattern=1 3;strokeWidth=2;rounded=0;" edge="1" parent="1">
          <mxGeometry width="50" height="50" relative="1" as="geometry">
            <mxPoint x="283.5" y="224.5" as="sourcePoint" />
            <mxPoint x="321.5" y="186" as="targetPoint" />
          </mxGeometry>
        </mxCell>
        <mxCell id="BExbLMBwpLFMz_tROVOg-3" value="" style="endArrow=none;dashed=1;html=1;dashPattern=1 3;strokeWidth=2;rounded=0;entryX=0;entryY=0;entryDx=0;entryDy=143;entryPerimeter=0;" edge="1" parent="1" target="BExbLMBwpLFMz_tROVOg-1">
          <mxGeometry width="50" height="50" relative="1" as="geometry">
            <mxPoint x="321.5" y="186" as="sourcePoint" />
            <mxPoint x="511.5" y="176" as="targetPoint" />
          </mxGeometry>
        </mxCell>
        <mxCell id="BExbLMBwpLFMz_tROVOg-4" value="" style="endArrow=none;dashed=1;html=1;dashPattern=1 3;strokeWidth=2;rounded=0;entryX=0;entryY=0;entryDx=144;entryDy=0;entryPerimeter=0;" edge="1" parent="1" target="BExbLMBwpLFMz_tROVOg-1">
          <mxGeometry width="50" height="50" relative="1" as="geometry">
            <mxPoint x="321.5" y="186" as="sourcePoint" />
            <mxPoint x="421.5" y="156" as="targetPoint" />
          </mxGeometry>
        </mxCell>
        <mxCell id="BExbLMBwpLFMz_tROVOg-5" value="" style="endArrow=classic;html=1;rounded=0;fillColor=#dae8fc;strokeColor=#6c8ebf;strokeWidth=3;" edge="1" parent="1">
          <mxGeometry width="50" height="50" relative="1" as="geometry">
            <mxPoint x="321.5" y="186" as="sourcePoint" />
            <mxPoint x="321.5" y="116" as="targetPoint" />
          </mxGeometry>
        </mxCell>
        <mxCell id="BExbLMBwpLFMz_tROVOg-6" value="Z" style="text;html=1;align=center;verticalAlign=middle;resizable=0;points=[];autosize=1;strokeColor=none;fillColor=none;" vertex="1" parent="1">
          <mxGeometry x="291.5" y="88" width="30" height="30" as="geometry" />
        </mxCell>
        <mxCell id="BExbLMBwpLFMz_tROVOg-11" value="" style="shape=cube;whiteSpace=wrap;html=1;boundedLbl=1;backgroundOutline=1;darkOpacity=0.05;darkOpacity2=0.1;size=41;rotation=90;fillColor=#f5f5f5;fontColor=#333333;strokeColor=#666666;" vertex="1" parent="1">
          <mxGeometry x="281" y="240.5" width="185" height="184" as="geometry" />
        </mxCell>
        <mxCell id="BExbLMBwpLFMz_tROVOg-12" value="" style="endArrow=none;dashed=1;html=1;dashPattern=1 3;strokeWidth=2;rounded=0;" edge="1" parent="1">
          <mxGeometry width="50" height="50" relative="1" as="geometry">
            <mxPoint x="283.5" y="424.5" as="sourcePoint" />
            <mxPoint x="321.5" y="386" as="targetPoint" />
          </mxGeometry>
        </mxCell>
        <mxCell id="BExbLMBwpLFMz_tROVOg-13" value="" style="endArrow=none;dashed=1;html=1;dashPattern=1 3;strokeWidth=2;rounded=0;entryX=0;entryY=0;entryDx=0;entryDy=143;entryPerimeter=0;" edge="1" parent="1" target="BExbLMBwpLFMz_tROVOg-11">
          <mxGeometry width="50" height="50" relative="1" as="geometry">
            <mxPoint x="321.5" y="386" as="sourcePoint" />
            <mxPoint x="511.5" y="376" as="targetPoint" />
          </mxGeometry>
        </mxCell>
        <mxCell id="BExbLMBwpLFMz_tROVOg-14" value="" style="endArrow=none;dashed=1;html=1;dashPattern=1 3;strokeWidth=2;rounded=0;entryX=0;entryY=0;entryDx=144;entryDy=0;entryPerimeter=0;" edge="1" parent="1" target="BExbLMBwpLFMz_tROVOg-11">
          <mxGeometry width="50" height="50" relative="1" as="geometry">
            <mxPoint x="321.5" y="386" as="sourcePoint" />
            <mxPoint x="421.5" y="356" as="targetPoint" />
          </mxGeometry>
        </mxCell>
        <mxCell id="BExbLMBwpLFMz_tROVOg-19" value="" style="endArrow=classic;html=1;rounded=0;fillColor=#d5e8d4;strokeColor=#82b366;strokeWidth=3;" edge="1" parent="1">
          <mxGeometry width="50" height="50" relative="1" as="geometry">
            <mxPoint x="321.5" y="386" as="sourcePoint" />
            <mxPoint x="291.5" y="416" as="targetPoint" />
          </mxGeometry>
        </mxCell>
        <mxCell id="BExbLMBwpLFMz_tROVOg-20" value="Y" style="text;html=1;align=center;verticalAlign=middle;resizable=0;points=[];autosize=1;strokeColor=none;fillColor=none;" vertex="1" parent="1">
          <mxGeometry x="281" y="366" width="30" height="30" as="geometry" />
        </mxCell>
        <mxCell id="BExbLMBwpLFMz_tROVOg-21" value="" style="shape=parallelogram;perimeter=parallelogramPerimeter;whiteSpace=wrap;html=1;fixedSize=1;size=40;fillColor=#ffe6cc;strokeColor=#d79b00;opacity=50;" vertex="1" parent="1">
          <mxGeometry x="281" y="150" width="184" height="40" as="geometry" />
        </mxCell>
        <mxCell id="BExbLMBwpLFMz_tROVOg-23" value="" style="shape=parallelogram;perimeter=parallelogramPerimeter;whiteSpace=wrap;html=1;fixedSize=1;size=40;fillColor=#ffe6cc;strokeColor=#d79b00;opacity=50;" vertex="1" parent="1">
          <mxGeometry x="281" y="140" width="184" height="40" as="geometry" />
        </mxCell>
        <mxCell id="BExbLMBwpLFMz_tROVOg-24" value="" style="shape=parallelogram;perimeter=parallelogramPerimeter;whiteSpace=wrap;html=1;fixedSize=1;size=40;fillColor=#ffe6cc;strokeColor=#d79b00;opacity=50;" vertex="1" parent="1">
          <mxGeometry x="281" y="130" width="184" height="40" as="geometry" />
        </mxCell>
        <mxCell id="BExbLMBwpLFMz_tROVOg-25" value="" style="rounded=0;whiteSpace=wrap;html=1;fillColor=#ffe6cc;strokeColor=#d79b00;opacity=50;" vertex="1" parent="1">
          <mxGeometry x="301" y="262.5" width="144" height="142" as="geometry" />
        </mxCell>
        <mxCell id="BExbLMBwpLFMz_tROVOg-26" value="" style="rounded=0;whiteSpace=wrap;html=1;fillColor=#ffe6cc;strokeColor=#d79b00;opacity=50;" vertex="1" parent="1">
          <mxGeometry x="310" y="254" width="144" height="142" as="geometry" />
        </mxCell>
        <mxCell id="BExbLMBwpLFMz_tROVOg-27" value="" style="rounded=0;whiteSpace=wrap;html=1;fillColor=#ffe6cc;strokeColor=#d79b00;opacity=50;" vertex="1" parent="1">
          <mxGeometry x="291.5" y="270" width="144" height="142" as="geometry" />
        </mxCell>
        <mxCell id="fBgjqR1qRVpHcfit4REd-1" value="" style="shape=cube;whiteSpace=wrap;html=1;boundedLbl=1;backgroundOutline=1;darkOpacity=0.05;darkOpacity2=0.1;size=41;rotation=90;fillColor=#f5f5f5;fontColor=#333333;strokeColor=#666666;" vertex="1" parent="1">
          <mxGeometry x="280" y="460.5" width="185" height="184" as="geometry" />
        </mxCell>
        <mxCell id="fBgjqR1qRVpHcfit4REd-2" value="" style="endArrow=none;dashed=1;html=1;dashPattern=1 3;strokeWidth=2;rounded=0;" edge="1" parent="1">
          <mxGeometry width="50" height="50" relative="1" as="geometry">
            <mxPoint x="282.5" y="644.5" as="sourcePoint" />
            <mxPoint x="320.5" y="606" as="targetPoint" />
          </mxGeometry>
        </mxCell>
        <mxCell id="fBgjqR1qRVpHcfit4REd-3" value="" style="endArrow=none;dashed=1;html=1;dashPattern=1 3;strokeWidth=2;rounded=0;entryX=0;entryY=0;entryDx=0;entryDy=143;entryPerimeter=0;" edge="1" parent="1" target="fBgjqR1qRVpHcfit4REd-1">
          <mxGeometry width="50" height="50" relative="1" as="geometry">
            <mxPoint x="320.5" y="606" as="sourcePoint" />
            <mxPoint x="510.5" y="596" as="targetPoint" />
          </mxGeometry>
        </mxCell>
        <mxCell id="fBgjqR1qRVpHcfit4REd-4" value="" style="endArrow=none;dashed=1;html=1;dashPattern=1 3;strokeWidth=2;rounded=0;entryX=0;entryY=0;entryDx=144;entryDy=0;entryPerimeter=0;" edge="1" parent="1" target="fBgjqR1qRVpHcfit4REd-1">
          <mxGeometry width="50" height="50" relative="1" as="geometry">
            <mxPoint x="320.5" y="606" as="sourcePoint" />
            <mxPoint x="420.5" y="576" as="targetPoint" />
          </mxGeometry>
        </mxCell>
        <mxCell id="fBgjqR1qRVpHcfit4REd-7" value="" style="endArrow=classic;html=1;rounded=0;fillColor=#f8cecc;strokeColor=#b85450;strokeWidth=3;" edge="1" parent="1">
          <mxGeometry width="50" height="50" relative="1" as="geometry">
            <mxPoint x="320.5" y="606" as="sourcePoint" />
            <mxPoint x="380.5" y="606" as="targetPoint" />
          </mxGeometry>
        </mxCell>
        <mxCell id="fBgjqR1qRVpHcfit4REd-8" value="X" style="text;html=1;align=center;verticalAlign=middle;resizable=0;points=[];autosize=1;strokeColor=none;fillColor=none;" vertex="1" parent="1">
          <mxGeometry x="370.5" y="576" width="30" height="30" as="geometry" />
        </mxCell>
        <mxCell id="fBgjqR1qRVpHcfit4REd-11" value="" style="shape=parallelogram;perimeter=parallelogramPerimeter;whiteSpace=wrap;html=1;fixedSize=1;size=40;fillColor=#ffe6cc;strokeColor=#d79b00;opacity=50;rotation=-90;flipH=1;" vertex="1" parent="1">
          <mxGeometry x="240" y="532.5" width="184" height="40" as="geometry" />
        </mxCell>
        <mxCell id="fBgjqR1qRVpHcfit4REd-12" value="" style="shape=parallelogram;perimeter=parallelogramPerimeter;whiteSpace=wrap;html=1;fixedSize=1;size=40;fillColor=#ffe6cc;strokeColor=#d79b00;opacity=50;rotation=-90;flipH=1;" vertex="1" parent="1">
          <mxGeometry x="251.5" y="532.5" width="184" height="40" as="geometry" />
        </mxCell>
        <mxCell id="fBgjqR1qRVpHcfit4REd-13" value="" style="shape=parallelogram;perimeter=parallelogramPerimeter;whiteSpace=wrap;html=1;fixedSize=1;size=40;fillColor=#ffe6cc;strokeColor=#d79b00;opacity=50;rotation=-90;flipH=1;" vertex="1" parent="1">
          <mxGeometry x="263" y="532.5" width="184" height="40" as="geometry" />
        </mxCell>
      </root>
    </mxGraphModel>
  </diagram>
</mxfile>
